<?xml version="1.0" encoding="UTF-8"?>
<svg id="_图层_1" data-name="图层 1" xmlns="http://www.w3.org/2000/svg" width="197.020956mm" height="50.772241mm" viewBox="0 0 558.484608 143.921315">
  <defs>
    <style>
      .cls-1 {
        fill: #3142ef;
      }

      .cls-2 {
        fill: #1d1d1f;
      }
    </style>
  </defs>
  <g>
    <path class="cls-1" d="M123.933925,122.364147c.924411,0,1.850165-.032548,2.772973,.005735,3.688716,.152991,7.322138-.180664,10.885784-1.173196,1.884251-.524786,3.106524-2.049874,3.043265-3.98474-.08474-2.592635-.290653-5.181073-.401046-7.773161-.240664-5.650565-.507515-11.300831-.661601-16.954003-.12812-4.700084,.457839-9.322441,2.316385-13.683734,2.03311-4.770883,6.929617-6.66628,11.662197-4.590617,1.530731,.671358,2.96881,1.581776,4.537616,2.130078,1.379774,.48224,2.890652,.881435,4.330009,.840297,2.996248-.085653,5.051909-2.054807,6.696383-4.282412,4.123027-5.585032,5.373025-11.917996,4.303235-18.712376-.432695-2.748148-1.453786-5.257842-3.617545-7.199005-2.386331-2.140812-4.943745-2.524254-7.729075-.957866-1.052245,.591753-2.008318,1.353749-3.057004,1.95277-3.120967,1.782742-6.424227,3.092649-10.066278,2.20568-4.527657-1.102638-7.021109-4.349405-8.265202-8.66155-.949321-3.290447-.771707-6.691366-.892971-10.064982-.213825-5.949463,.980644-11.587772,3.480183-16.981761,.700615-1.511958,1.302515-3.086177,1.774093-4.68367,.624725-2.116169-.453511-3.927882-2.604979-4.466524-7.330871-1.835341-14.752622-3.102373-22.313247-3.492147-2.945608-.151854-5.88608-.401026-8.830736-.574469-2.505053-.147549-4.981299,.006563-7.359118,.912146-2.554775,.97298-3.539838,2.975077-2.648946,5.534665,.384674,1.105196,.869834,2.183012,1.395468,3.230034,1.244399,2.478739,2.622224,4.89348,3.791907,7.405888,1.122275,2.410596,.939512,4.873498-.396066,7.170455-1.921883,3.305294-4.583427,5.989324-7.960224,7.69224-8.0999,4.084783-17.456445,2.657223-23.719853-4.853042-2.166823-2.598175-3.439632-5.574076-2.480873-8.992292,.540937-1.928548,1.461274-3.763006,2.327439-5.584338,.776419-1.632609,1.899157-3.117923,2.539902-4.794069,1.370955-3.586337-1.461046-8.034149-5.254641-8.595388-3.944794-.583603-7.885045-.484776-11.796971,.126533-5.657343,.884062-11.312029,1.811224-16.929374,2.915664-3.588497,.705545-7.1323,1.678658-10.648939,2.695122-2.303761,.66589-3.140747,2.360226-2.710718,4.701577,1.546767,8.421662,3.891272,16.693203,4.637607,25.267432,.360028,4.136121,.357597,8.248603-.425988,12.318299-.20357,1.057276-.846234,2.138446-1.564788,2.968295-2.391483,2.761887-5.463878,3.590961-8.981059,2.69026-2.617444-.670289-5.18991-1.535052-7.82761-2.103428-5.270237-1.135649-9.997617,.636313-12.637497,4.982909-3.543003,5.833615-3.853595,13.146994,1.073337,19.006353,1.88563,2.242484,4.160738,3.890374,7.160159,4.261947,2.225341,.275702,4.287719-.411382,6.315288-1.212536,1.75151-.692077,3.454677-1.538748,5.250736-2.079541,4.554661-1.371412,8.001924,.635935,8.887944,5.308463,.53394,2.815806,.830315,5.708414,.891527,8.573818,.071865,3.364069-.125337,6.744209-.393472,10.102399-.27391,3.430534-.728754,6.849258-1.194811,10.2608-.271883,1.990174,.703658,3.539923,2.683967,3.871141,2.630759,.440007,5.264594,.864099,7.902873,1.256242,5.679427,.844168,11.373906,1.367417,17.105815,.550074,2.54421-.362775,5.095609-.827849,7.305818-2.20263,4.398735-2.736059,5.878591-6.805943,2.77457-11.398723-.697186-1.031572-1.459169-2.019359-2.155978-3.051165-1.132123-1.676423-2.127744-3.459158-1.828703-5.555071,.660363-4.628288,3.074015-8.203705,7.380339-9.986101,2.4031-.994644,5.175845-1.462832,7.791923-1.501703,5.848343-.086917,11.173361,1.891265,15.99534,5.164375,.930368,.631503,1.760635,1.450971,2.516237,2.292245,2.791809,3.108401,2.803442,6.473695,.06902,9.817625-1.148104,1.404019-2.412877,2.716298-3.510072,4.157479-1.882765,2.473053-1.922014,4.858863-.115998,7.380144,1.917132,2.676411,4.293824,4.903716,7.377582,6.130994,2.867848,1.141339,5.825558,2.070286,8.777345,2.984139,4.314341,1.335703,8.779795,1.212992,13.227118,1.28192Z"/>
    <path class="cls-1" d="M123.933925,122.364147c-4.447323-.068929-8.912778,.053782-13.227118-1.28192-2.951786-.913853-5.909497-1.842801-8.777345-2.984139-3.083758-1.227278-5.46045-3.454583-7.377582-6.130994-1.806016-2.521282-1.766768-4.907092,.115998-7.380144,1.097196-1.441181,2.361969-2.75346,3.510072-4.157479,2.734422-3.34393,2.722789-6.709223-.06902-9.817625-.755602-.841275-1.585869-1.660742-2.516237-2.292245-4.82198-3.273111-10.146997-5.251292-15.99534-5.164375-2.616078,.03887-5.388823,.507059-7.791923,1.501703-4.306324,1.782397-6.719976,5.357814-7.380339,9.986101-.299041,2.095913,.69658,3.878649,1.828703,5.555071,.696808,1.031806,1.458791,2.019593,2.155978,3.051165,3.104021,4.59278,1.624165,8.662665-2.77457,11.398723-2.210209,1.374781-4.761608,1.839855-7.305818,2.20263-5.731909,.817342-11.426388,.294094-17.105815-.550074-2.63828-.392143-5.272115-.816234-7.902873-1.256242-1.980309-.331218-2.95585-1.880967-2.683967-3.871141,.466057-3.411542,.920902-6.830266,1.194811-10.2608,.268135-3.35819,.465337-6.73833,.393472-10.102399-.061212-2.865404-.357587-5.758012-.891527-8.573818-.88602-4.672528-4.333284-6.679875-8.887944-5.308463-1.796059,.540793-3.499226,1.387464-5.250736,2.079541-2.027569,.801153-4.089948,1.488237-6.315288,1.212536-2.999421-.371574-5.274529-2.019463-7.160159-4.261947-4.926933-5.859359-4.61634-13.172738-1.073337-19.006353,2.639879-4.346596,7.36726-6.118558,12.637497-4.982909,2.6377,.568375,5.210166,1.433139,7.82761,2.103428,3.517181,.900701,6.589576,.071627,8.981059-2.69026,.718554-.829849,1.361218-1.911019,1.564788-2.968295,.783585-4.069695,.786016-8.182177,.425988-12.318299-.746335-8.574229-3.09084-16.845771-4.637607-25.267432-.430029-2.341351,.406957-4.035687,2.710718-4.701577,3.516639-1.016464,7.060442-1.989577,10.648939-2.695122,5.617345-1.10444,11.272032-2.031602,16.929374-2.915664,3.911926-.611309,7.852177-.710137,11.796971-.126533,3.793595,.561239,6.625597,5.009051,5.254641,8.595388-.640745,1.676146-1.763483,3.16146-2.539902,4.794069-.866165,1.821332-1.786502,3.65579-2.327439,5.584338-.958758,3.418216,.314051,6.394117,2.480873,8.992292,6.263408,7.510266,15.619954,8.937826,23.719853,4.853042,3.376797-1.702916,6.038341-4.386946,7.960224-7.69224,1.335579-2.296957,1.518341-4.759859,.396066-7.170455-1.169683-2.512408-2.547508-4.927149-3.791907-7.405888-.525634-1.047021-1.010794-2.124837-1.395468-3.230034-.890892-2.559588,.094171-4.561686,2.648946-5.534665,2.377819-.905582,4.854065-1.059694,7.359118-.912146,2.944656,.173443,5.885128,.422615,8.830736,.574469,7.560625,.389774,14.982376,1.656805,22.313247,3.492147,2.151468,.538643,3.229704,2.350355,2.604979,4.466524-.471578,1.597493-1.073479,3.171712-1.774093,4.68367-2.499539,5.393989-3.694008,11.032298-3.480183,16.981761,.121264,3.373617-.05635,6.774535,.892971,10.064982,1.244093,4.312145,3.737545,7.558912,8.265202,8.66155,3.642051,.886969,6.945311-.422938,10.066278-2.20568,1.048686-.59902,2.004759-1.361016,3.057004-1.95277,2.78533-1.566388,5.342745-1.182946,7.729075,.957866,2.163759,1.941162,3.184851,4.450856,3.617545,7.199005,1.06979,6.794381-.180208,13.127344-4.303235,18.712376-1.644474,2.227605-3.700135,4.19676-6.696383,4.282412-1.439356,.041138-2.950235-.358057-4.330009-.840297-1.568806-.548301-3.006885-1.45872-4.537616-2.130078-4.732579-2.075663-9.629086-.180267-11.662197,4.590617-1.858547,4.361293-2.444506,8.98365-2.316385,13.683734,.154086,5.653172,.420937,11.303438,.661601,16.954003,.110393,2.592088,.316306,5.180526,.401046,7.773161,.063259,1.934866-1.159014,3.459954-3.043265,3.98474-3.563646,.992532-7.197068,1.326187-10.885784,1.173196-.922808-.038284-1.848562-.005735-2.772973-.005735Z"/>
  </g>
  <g>
    <path class="cls-2" d="M195.082752,22.664479h15.595703l30.101562,69.151367h.363281l29.981934-69.151367h15.595703V108.982838h-13.177734V47.326588h-.484375l-26.474121,61.65625h-11.365234l-26.475586-61.65625h-.483398v61.65625h-13.177734V22.664479Z"/>
    <path class="cls-2" d="M317.910389,23.873463c1.692383,1.53125,2.538086,3.586914,2.538086,6.166016,0,2.416992-.887695,4.514648-2.65918,6.286133-1.774414,1.613281-3.869141,2.417969-6.287109,2.417969s-4.514648-.804688-6.286133-2.417969c-1.692383-1.692383-2.539062-3.787109-2.539062-6.286133,0-2.579102,.84668-4.634766,2.539062-6.166016,1.611328-1.611328,3.706055-2.417969,6.286133-2.417969,2.660156,0,4.794922,.806641,6.408203,2.417969Zm-12.81543,22.607422h12.81543v62.501953h-12.81543V46.480885Z"/>
    <path class="cls-2" d="M385.126209,64.49358h-12.452148c-.966797-3.384766-2.458984-5.72168-4.472656-7.011719-2.175781-1.450195-5.481445-2.175781-9.913086-2.175781-4.03125,0-6.932617,.564453-8.705078,1.692383-2.256836,1.208984-3.384766,3.063477-3.384766,5.561523,0,2.09668,1.692383,3.949219,5.078125,5.560547,2.094727,.887695,6.286133,2.136719,12.572266,3.748047,7.011719,1.692383,12.290039,3.667969,15.836914,5.923828,4.99707,3.142578,7.496094,7.495117,7.496094,13.056641,0,13.21875-9.269531,19.826172-27.805664,19.826172-17.087891,0-26.355469-7.292969-27.805664-21.881836h12.573242c.724609,4.191406,2.21582,7.174805,4.472656,8.946289,2.255859,1.613281,5.72168,2.417969,10.396484,2.417969,9.993164,0,14.991211-2.820312,14.991211-8.462891,0-3.061523-1.854492-5.44043-5.561523-7.132812-1.933594-.966797-6.125-2.175781-12.572266-3.626953-7.416016-1.692383-12.573242-3.505859-15.474609-5.439453-4.835938-3.0625-7.253906-7.253906-7.253906-12.573242,0-5.72168,2.336914-10.155273,7.011719-13.298828,4.673828-3.222656,10.799805-4.834961,18.375977-4.834961,16.279297,0,25.146484,6.569336,26.59668,19.705078Z"/>
    <path class="cls-2" d="M446.540272,51.679127c3.787109,4.03125,5.681641,9.833984,5.681641,17.408203v39.895508h-11.847656v-8.825195c-2.338867,3.063477-5.400391,5.602539-9.1875,7.616211-4.110352,1.93457-8.907227,2.901367-14.386719,2.901367-6.449219,0-11.566406-1.652344-15.353516-4.956055-3.868164-3.385742-5.802734-7.858398-5.802734-13.419922,0-7.897461,3.101562-13.740234,9.308594-17.529297,5.238281-3.222656,12.089844-4.835938,20.551758-4.835938l14.024414-.121094v-1.571289c0-8.704102-4.714844-13.056641-14.144531-13.056641-4.433594,0-7.819336,.806641-10.155273,2.417969-2.822266,1.854492-4.473633,4.59375-4.957031,8.220703h-12.693359c.966797-7.414062,4.110352-12.894531,9.429688-16.441406,4.512695-3.0625,10.919922-4.59375,19.22168-4.59375,9.188477,0,15.958008,2.296875,20.310547,6.890625Zm-7.011719,27.926758l-13.177734,.120117c-11.6875,0-17.529297,4.071289-17.529297,12.210938,0,2.499023,.924805,4.553711,2.780273,6.165039,1.852539,1.613281,4.551758,2.417969,8.099609,2.417969,5.72168,0,10.517578-1.611328,14.386719-4.835938,3.626953-3.303711,5.44043-7.574219,5.44043-12.814453v-3.263672Z"/>
    <path class="cls-2" d="M466.847889,20.972096h12.814453v51.258789l27.080078-25.75h16.5625l-27.68457,25.75,30.102539,36.751953h-16.441406l-22.486328-28.53125-7.132812,6.649414v21.881836h-12.814453V20.972096Z"/>
    <path class="cls-2" d="M548.451405,23.873463c1.692383,1.53125,2.538086,3.586914,2.538086,6.166016,0,2.416992-.887695,4.514648-2.65918,6.286133-1.774414,1.613281-3.869141,2.417969-6.287109,2.417969s-4.514648-.804688-6.286133-2.417969c-1.692383-1.692383-2.539062-3.787109-2.539062-6.286133,0-2.579102,.84668-4.634766,2.539062-6.166016,1.611328-1.611328,3.706055-2.417969,6.286133-2.417969,2.660156,0,4.794922,.806641,6.408203,2.417969Zm-12.81543,22.607422h12.81543v62.501953h-12.81543V46.480885Z"/>
  </g>
</svg>